<svg viewbox="0 0 864.2117489085477 667.7999877929688" xmlns="http://www.w3.org/2000/svg">
<path d="M85.08313751220703 26.687864303588867C 85.0223388671875 26.250076293945312, 85.02177429199219 25.253692626953125, 85.13011932373047 25.300302505493164, 85.30325317382812 25.374780654907227, 85.46728515625 26.404403686523438, 85.61174774169922 28.41823387145996, 85.70185852050781 29.674406051635742, 85.72418975830078 31.321380615234375, 85.740966796875 33.3481559753418, 85.76558685302734 36.32342529296875, 85.72513580322266 39.923126220703125, 85.61174774169922 43.29778289794922, 85.52871704101562 45.76898956298828, 85.2890853881836 48.111602783203125, 85.13011932373047 50.04785919189453, 84.98220825195312 51.84952926635742, 84.89420318603516 53.24942398071289, 84.82469940185547 54.20237731933594, 84.62660217285156 56.918697357177734, 85.04127502441406 54.62299346923828, 84.66024780273438 53.42697525024414"  fill="none" stroke="#000000" stroke-width="1" stroke-linecap="round" stroke-linejoin="round"/>
<path d="M84.3078384399414 43.29778289794922C 85.35952758789062 44.2630500793457, 93.96312713623047 39.725547790527344, 93.78762817382812 39.92682647705078"  fill="none" stroke="#000000" stroke-width="1" stroke-linecap="round" stroke-linejoin="round"/>
<path d="M92.5659408569336 21.537565231323242C 92.20966339111328 21.09386444091797, 92.07279205322266 21.42570686340332, 92.22528076171875 23.047557830810547, 92.3237075805664 24.094358444213867, 92.63124084472656 25.592451095581055, 92.91835021972656 27.553049087524414, 93.44088745117188 31.1212215423584, 93.8023910522461 35.888004302978516, 94.081298828125 40.05741882324219, 94.34125518798828 43.943450927734375, 94.22688293457031 47.223148345947266, 94.21051788330078 49.14186096191406, 94.17870330810547 52.87202072143555, 94.31731414794922 50.966224670410156, 95.56141662597656 49.91726303100586"  fill="none" stroke="#000000" stroke-width="1" stroke-linecap="round" stroke-linejoin="round"/>
<path d="M98.97978210449219 46.93809127807617C 98.72246551513672 47.48955535888672, 99.27792358398438 47.84707260131836, 100.06050109863281 47.50127410888672, 101.31940460205078 46.94500732421875, 102.84407043457031 44.246482849121094, 103.3848876953125 41.86941146850586, 103.58234405517578 41.00152587890625, 103.55321502685547 40.13547134399414, 103.47886657714844 39.44526290893555, 103.42501831054688 38.94540786743164, 103.41777801513672 38.52520751953125, 103.25566864013672 38.237266540527344, 103.06172180175781 37.89277267456055, 102.57586669921875 37.78434753417969, 102.1749496459961 37.8046760559082, 101.26327514648438 37.850894927978516, 100.297607421875 39.54227828979492, 99.83731079101562 41.8286018371582, 99.53364562988281 43.33689498901367, 99.46328735351562 45.1431770324707, 99.62586212158203 46.8074951171875, 99.72516632080078 47.82408142089844, 99.89574432373047 48.78778839111328, 100.1897201538086 49.57445526123047, 101.19857788085938 52.274147033691406, 104.23981475830078 52.31898498535156, 106.06319427490234 49.05207824707031"  fill="none" stroke="#000000" stroke-width="1" stroke-linecap="round" stroke-linejoin="round"/>
<path d="M109.91619873046875 23.34955596923828C 109.64566040039062 23.337146759033203, 109.51103973388672 23.398021697998047, 109.44631958007812 23.7413387298584, 109.34444427490234 24.281686782836914, 109.31392669677734 25.407739639282227, 109.39933013916016 27.161266326904297, 109.47443389892578 28.703327178955078, 109.5949935913086 30.59307289123535, 109.75173950195312 32.523780822753906, 109.95774841308594 35.06129455566406, 110.2958984375 37.68230056762695, 110.52703857421875 39.75542068481445, 111.22523498535156 46.017677307128906, 110.78496551513672 45.59705352783203, 112.12462615966797 41.657196044921875"  fill="none" stroke="#000000" stroke-width="1" stroke-linecap="round" stroke-linejoin="round"/>
<path d="M115.07310485839844 20.019411087036133C 114.83635711669922 19.17423439025879, 114.70930480957031 19.729970932006836, 114.80292510986328 21.839563369750977, 114.90361022949219 24.108144760131836, 115.26671600341797 27.950481414794922, 115.84840393066406 32.91556167602539, 116.33119201660156 37.03639602661133, 116.4861831665039 40.9949951171875, 116.54147338867188 43.25697326660156, 116.63713073730469 47.17011642456055, 116.505615234375 47.28970718383789, 117.36376190185547 46.24430847167969"  fill="none" stroke="#000000" stroke-width="1" stroke-linecap="round" stroke-linejoin="round"/>
<path d="M125.7041015625 39.494232177734375C 124.97970581054688 39.95044708251953, 124.45311737060547 39.8700065612793, 123.93031311035156 40.490013122558594, 123.67508697509766 40.79269027709961, 123.39320373535156 41.201995849609375, 123.2020034790039 41.8286018371582, 122.98114776611328 42.55238342285156, 122.91777038574219 43.50794982910156, 122.94356536865234 44.4649658203125, 122.96271514892578 45.17536544799805, 122.9365234375 45.89738082885742, 123.10802459716797 46.54630661010742, 123.39279174804688 47.62383270263672, 124.39514923095703 48.38411331176758, 125.36344146728516 48.79905319213867, 126.33004760742188 49.21327590942383, 127.46019744873047 49.21233367919922, 128.4293975830078 48.88067626953125, 129.71726989746094 48.43996810913086, 130.6461181640625 47.1535530090332, 131.15469360351562 45.76274490356445, 131.4356231689453 44.99444580078125, 131.5929412841797 44.16776657104492, 131.5540771484375 43.34675598144531, 131.50332641601562 42.274410247802734, 131.05918884277344 41.22776794433594, 130.34414672851562 40.53082275390625, 129.44198608398438 39.651493072509766, 127.9200668334961 39.46485137939453, 126.65560150146484 40.00844955444336"  fill="none" stroke="#000000" stroke-width="1" stroke-linecap="round" stroke-linejoin="round"/>
<path d="M145.3097686767578 21.537565231323242C 145.94384765625 20.729177474975586, 145.92604064941406 25.071184158325195, 145.9088592529297 29.62622833251953, 145.88894653320312 34.905357360839844, 145.40187072753906 40.0023078918457, 146.86036682128906 36.33549118041992"  fill="none" stroke="#000000" stroke-width="1" stroke-linecap="round" stroke-linejoin="round"/>
<path d="M146.64892578125 48.668460845947266C 146.40133666992188 48.741798400878906, 146.0409698486328 48.41257095336914, 145.9558563232422 48.0154914855957, 145.89480590820312 47.730690002441406, 146.21902465820312 47.3585319519043, 146.5666961669922 47.109493255615234, 146.77020263671875 46.963714599609375, 147.0427703857422 46.907405853271484, 147.3419952392578 46.88911819458008, 147.7693634033203 46.86299514770508, 148.23077392578125 46.82179641723633, 148.59890747070312 46.88911819458008, 148.90951538085938 46.94591522216797, 149.03329467773438 47.3350830078125, 149.11578369140625 47.67267990112305, 149.1731414794922 47.90740966796875, 149.29197692871094 48.14350891113281, 149.29197692871094 48.40727233886719, 149.2919921875 48.78950500488281, 149.2956085205078 49.1882209777832, 148.98655700683594 49.48467254638672, 147.79425048828125 50.62839126586914, 143.7140350341797 50.41084289550781, 144.4874725341797 48.10527420043945"  fill="none" stroke="#000000" stroke-width="1" stroke-linecap="round" stroke-linejoin="round"/>
<path d="M179.17623901367188 22.745559692382812C 179.10009765625 21.802194595336914, 179.13011169433594 22.5218505859375, 179.2232208251953 24.39430809020996, 179.27920532226562 25.520103454589844, 179.3930206298828 27.05080795288086, 179.48165893554688 28.850826263427734, 179.6066436767578 31.38904571533203, 179.65966796875 34.40752410888672, 179.70484924316406 37.24148941040039, 179.74844360351562 39.97648239135742, 179.753662109375 42.53714370727539, 179.70484924316406 44.513938903808594, 179.63784790039062 47.22743606567383, 179.4711456298828 48.657840728759766, 178.882568359375 48.970458984375"  fill="none" stroke="#000000" stroke-width="1" stroke-linecap="round" stroke-linejoin="round"/>
<path d="M166.46603393554688 32.48297119140625C 166.03616333007812 32.53428649902344, 166.02357482910156 32.25593948364258, 166.6304931640625 31.487192153930664, 167.29605102539062 30.6441650390625, 168.58303833007812 29.277292251586914, 170.48348999023438 27.553049087524414, 172.09515380859375 26.090816497802734, 174.05337524414062 24.431190490722656, 176.06329345703125 22.835342407226562, 178.67994689941406 20.757740020751953, 181.53501892089844 18.901700973510742, 183.8515167236328 17.46466636657715, 185.93685913085938 16.17104148864746, 187.55430603027344 15.426087379455566, 188.5268096923828 15.130298614501953, 190.49253845214844 14.532419204711914, 191.59982299804688 14.133432388305664, 192.1566162109375 13.963115692138672"  fill="none" stroke="#000000" stroke-width="1" stroke-linecap="round" stroke-linejoin="round"/>
<path d="M194.70570373535156 15.824079513549805C 194.64968872070312 16.05344009399414, 194.850830078125 16.68110466003418, 195.1051025390625 18.02785301208496, 195.39315795898438 19.553478240966797, 195.64688110351562 21.8431453704834, 195.8334197998047 24.565711975097656, 195.9519805908203 26.29633331298828, 195.94850158691406 28.18215560913086, 195.96263122558594 30.018009185791016, 195.9815673828125 32.47781753540039, 195.99903869628906 34.8460693359375, 195.96263122558594 36.67830276489258, 195.93826293945312 37.90471649169922, 195.81065368652344 38.823638916015625, 195.75119018554688 39.44526290893555, 195.6597900390625 40.400794982910156, 195.7201690673828 40.487876892089844, 195.88040161132812 40.05741882324219, 196.11083984375 39.438358306884766, 196.69410705566406 37.924522399902344, 197.34877014160156 36.4171142578125, 198.31153869628906 34.200260162353516, 199.5546112060547 32.1463623046875, 200.63792419433594 31.52800178527832, 201.00445556640625 31.31878089904785, 201.34056091308594 31.25250244140625, 201.71864318847656 31.446380615234375, 202.3660430908203 31.778366088867188, 203.02761840820312 32.80002212524414, 203.62164306640625 34.08274841308594, 205.0550537109375 37.178062438964844, 205.37876892089844 42.05540466308594, 206.6993408203125 40.35942077636719"  fill="none" stroke="#000000" stroke-width="1" stroke-linecap="round" stroke-linejoin="round"/>
<path d="M214.91046142578125 36.67830276489258C 214.24769592285156 37.59525680541992, 213.06387329101562 39.9986572265625, 213.39511108398438 39.01266860961914"  fill="none" stroke="#000000" stroke-width="1" stroke-linecap="round" stroke-linejoin="round"/>
<path d="M213.1366729736328 28.761043548583984C 213.3497772216797 29.467031478881836, 212.57643127441406 29.571325302124023, 213.31288146972656 30.230224609375"  fill="none" stroke="#000000" stroke-width="1" stroke-linecap="round" stroke-linejoin="round"/>
<path d="M228.0200653076172 28.761043548583984C 226.8082733154297 29.1245174407959, 225.09613037109375 29.69443130493164, 223.6971893310547 30.45060157775879, 223.04861450195312 30.80118179321289, 222.466552734375 31.194744110107422, 222.099609375 31.576974868774414, 221.68479919433594 32.009063720703125, 221.6760711669922 32.454139709472656, 222.1348419189453 32.82577896118164, 222.6443634033203 33.23853302001953, 223.8040313720703 33.385841369628906, 224.95411682128906 33.87053298950195, 227.02151489257812 34.7418212890625, 229.1654510498047 36.77358627319336, 230.31072998046875 38.710670471191406, 230.8147735595703 39.56320571899414, 231.0030517578125 40.48114776611328, 231.05078125 41.26541519165039, 231.0880126953125 41.87723159790039, 231.17239379882812 42.42340850830078, 231.00379943847656 42.86518859863281, 230.3125762939453 44.676414489746094, 225.52870178222656 44.152122497558594, 221.0541229248047 44.4649658203125"  fill="none" stroke="#000000" stroke-width="1" stroke-linecap="round" stroke-linejoin="round"/>
<path d="M271.80096435546875 34.64593505859375C 270.48175048828125 34.45771408081055, 271.23602294921875 40.607547760009766, 270.6732482910156 41.09400939941406"  fill="none" stroke="#000000" stroke-width="1" stroke-linecap="round" stroke-linejoin="round"/>
<path d="M270.7202453613281 26.557270050048828C 270.12420654296875 26.774133682250977, 269.473388671875 27.1771240234375, 271.3663330078125 27.806074142456055"  fill="none" stroke="#000000" stroke-width="1" stroke-linecap="round" stroke-linejoin="round"/>
<path d="M286.9427795410156 29.495634078979492C 285.6798400878906 29.879846572875977, 284.0016174316406 30.023120880126953, 282.6199035644531 30.189414978027344, 281.9316711425781 30.272249221801758, 281.3086853027344 30.356727600097656, 280.84613037109375 30.491413116455078, 280.49822998046875 30.59270668029785, 280.2207336425781 30.652809143066406, 280.1060485839844 30.793411254882812, 279.9269714355469 31.01297378540039, 280.3897399902344 31.522253036499023, 281.10455322265625 31.919784545898438, 282.58441162109375 32.74276351928711, 285.554931640625 33.36967086791992, 287.5536193847656 34.64593505859375, 288.7691650390625 35.422115325927734, 289.6012878417969 36.459373474121094, 289.8912658691406 37.543487548828125, 290.04571533203125 38.12085723876953, 290.09710693359375 38.70583724975586, 289.926513671875 39.27385711669922, 289.0862121582031 42.07157516479492, 282.4602966308594 44.083740234375, 280.23529052734375 41.61638641357422"  fill="none" stroke="#000000" stroke-width="1" stroke-linecap="round" stroke-linejoin="round"/>
<path d="M331.0760803222656 32.57275390625C 331.3083801269531 31.403291702270508, 331.6918640136719 30.14855194091797, 330.6414489746094 29.969038009643555, 330.2392883300781 29.900304794311523, 329.6867370605469 29.890241622924805, 329.04388427734375 30.148603439331055, 327.6531677246094 30.707500457763672, 325.9474182128906 32.683692932128906, 324.58001708984375 34.776527404785156, 323.6911926269531 36.13692092895508, 323.064208984375 37.64030075073242, 322.7239990234375 38.84126281738281, 322.408447265625 39.95521926879883, 322.3897399902344 40.76816177368164, 322.7239990234375 41.26541519165039, 323.2257385253906 42.01179885864258, 324.5552673339844 42.12876892089844, 325.7547302246094 41.8286018371582, 327.6565856933594 41.352657318115234, 329.220458984375 39.27743911743164, 330.1246032714844 37.24148941040039, 330.5854187011719 36.20382308959961, 330.8876953125 35.12583541870117, 331.111328125 34.254150390625, 331.2231750488281 33.81820297241211, 331.324462890625 33.45812225341797, 331.3697814941406 33.21756362915039, 331.4263610839844 32.9171142578125, 331.3753662109375 32.71110153198242, 331.33453369140625 32.695186614990234, 331.33642578125 32.6959228515625, 331.14141845703125 33.54244613647461, 331.111328125 34.213340759277344, 331.06396484375 35.27030944824219, 331.6390380859375 36.68144607543945, 332.75592041015625 37.84548568725586, 334.4268798828125 39.58699417114258, 337.54425048828125 40.220279693603516, 339.5926208496094 39.5350456237793"  fill="none" stroke="#000000" stroke-width="1" stroke-linecap="round" stroke-linejoin="round"/>
<path d="M361.312744140625 13.79171085357666C 361.42327880859375 12.724530220031738, 361.1323547363281 12.441753387451172, 360.6666564941406 13.489712715148926, 360.43267822265625 14.016268730163574, 360.2049255371094 14.890498161315918, 359.879638671875 16.12607765197754, 359.635009765625 17.055152893066406, 359.3019104003906 18.181060791015625, 358.97509765625 19.54600715637207, 358.62713623046875 20.999343872070312, 358.25579833984375 22.671781539916992, 357.9413757324219 24.435117721557617, 357.5096740722656 26.856149673461914, 357.24798583984375 29.46173858642578, 357.1543273925781 31.707569122314453, 357.09033203125 33.24228286743164, 357.06500244140625 34.5730094909668, 357.2483215332031 35.68252182006836, 358.5674133300781 43.666236877441406, 369.054931640625 40.401973724365234, 371.0862121582031 35.42133331298828"  fill="none" stroke="#000000" stroke-width="1" stroke-linecap="round" stroke-linejoin="round"/>
<path d="M352.8314514160156 28.548828125C 351.88543701171875 29.368377685546875, 365.3861083984375 24.939849853515625, 368.4901428222656 25.69208526611328"  fill="none" stroke="#000000" stroke-width="1" stroke-linecap="round" stroke-linejoin="round"/>
<path d="M371.8262634277344 29.797632217407227C 372.05438232421875 29.810218811035156, 373.60858154296875 29.91160774230957, 375.5852966308594 29.62622833251953, 376.6221618652344 29.476533889770508, 377.76617431640625 29.150426864624023, 378.7922058105469 28.80185317993164, 380.20281982421875 28.322643280029297, 381.288330078125 27.671398162841797, 381.8581848144531 26.940889358520508, 382.9005126953125 25.604684829711914, 381.95428466796875 23.672731399536133, 380.2135925292969 23.137340545654297, 379.54058837890625 22.930341720581055, 378.767333984375 22.86678695678711, 377.9699401855469 23.09653091430664, 376.959228515625 23.387727737426758, 375.9579772949219 24.28624153137207, 375.0214538574219 25.471708297729492, 373.4464416503906 27.465356826782227, 372.2409362792969 30.505306243896484, 372.0377197265625 32.874752044677734, 371.93988037109375 34.01549530029297, 372.08697509765625 34.980003356933594, 372.6015625 35.68252182006836, 374.3477478027344 38.06631851196289, 380.8560791015625 37.2879524230957, 384.7596740722656 35.984519958496094"  fill="none" stroke="#000000" stroke-width="1" stroke-linecap="round" stroke-linejoin="round"/>
<path d="M396.694580078125 25.259492874145508C 396.2020263671875 25.044767379760742, 395.7504577636719 24.764387130737305, 395.0500183105469 24.52490234375, 394.6450500488281 24.386444091796875, 394.1631774902344 24.25078010559082, 393.54638671875 24.173931121826172, 391.8131408691406 23.95797348022461, 389.1237487792969 24.438615798950195, 387.6611633300781 25.12889862060547, 387.08465576171875 25.4009952545166, 386.72406005859375 25.75238609313965, 386.6626892089844 26.124677658081055, 386.5906677246094 26.56144905090332, 387.1747741699219 27.089120864868164, 388.13104248046875 27.72445297241211, 389.1951599121094 28.431428909301758, 390.722412109375 29.188674926757812, 392.1132507324219 30.018009185791016, 394.710205078125 31.566511154174805, 396.6056823730469 33.494747161865234, 396.9177551269531 35.07852554321289, 397.2010803222656 36.516265869140625, 395.83367919921875 37.84949493408203, 393.8400573730469 38.62904739379883, 390.36346435546875 39.98849868774414, 384.95635986328125 39.55542755126953, 384.4542541503906 35.470306396484375"  fill="none" stroke="#000000" stroke-width="1" stroke-linecap="round" stroke-linejoin="round"/>
<path d="M404.9174499511719 11.669559478759766C 404.9643249511719 11.375005722045898, 404.83038330078125 10.760433197021484, 404.6590270996094 10.330970764160156, 404.55816650390625 10.078230857849121, 404.49310302734375 9.852054595947266, 404.40057373046875 9.808594703674316, 404.33697509765625 9.778714179992676, 404.15234375 10.441550254821777, 403.88372802734375 11.5797758102417, 403.5299377441406 13.078710556030273, 402.8182373046875 15.404377937316895, 402.192138671875 18.329851150512695, 401.7526550292969 20.383384704589844, 401.3071594238281 22.675159454345703, 401.0292053222656 24.90852165222168, 400.7487487792969 27.16200828552246, 400.6682434082031 29.35516357421875, 400.8059997558594 31.14438247680664, 400.99237060546875 33.564945220947266, 401.8384094238281 35.043575286865234, 403.0614318847656 35.81311798095703, 403.873291015625 36.3239631652832, 404.9266052246094 36.46474838256836, 406.12738037109375 36.466087341308594, 410.8833923339844 36.47138214111328, 418.01824951171875 34.18320083618164, 416.7701110839844 33.91134262084961"  fill="none" stroke="#000000" stroke-width="1" stroke-linecap="round" stroke-linejoin="round"/>
<path d="M398.8677673339844 24.565711975097656C 398.92681884765625 24.722923278808594, 399.31976318359375 24.68669891357422, 400.07769775390625 24.52490234375, 401.19964599609375 24.285404205322266, 403.1024169921875 23.823091506958008, 405.2228698730469 23.34955596923828, 408.0860900878906 22.710147857666016, 411.3165588378906 22.181921005249023, 412.8818664550781 22.010967254638672"  fill="none" stroke="#000000" stroke-width="1" stroke-linecap="round" stroke-linejoin="round"/>
<path d="M441.2977600097656 22.78636932373047C 441.2178649902344 22.967792510986328, 441.15069580078125 23.534862518310547, 441.0393371582031 24.52490234375, 440.8134765625 26.532793045043945, 440.38458251953125 30.02134132385254, 440.08782958984375 32.695186614990234, 439.9536437988281 33.90409469604492, 439.84844970703125 34.94298553466797, 439.78240966796875 35.60090255737305, 439.5992126464844 37.425453186035156, 440.100341796875 34.15215301513672, 441.1685485839844 30.622007369995117, 441.6213073730469 29.12575340270996, 442.1705322265625 27.624605178833008, 442.8131103515625 26.42667579650879, 443.4446716308594 25.249343872070312, 444.2445373535156 24.42216682434082, 444.97454833984375 23.961715698242188, 445.4407653808594 23.667648315429688, 445.9227600097656 23.60978889465332, 446.3254699707031 23.61074447631836, 446.73907470703125 23.611724853515625, 447.1007385253906 23.494760513305664, 447.35919189453125 23.7413387298584, 448.14569091796875 24.491697311401367, 447.8671569824219 27.62114906311035, 447.8760681152344 30.279197692871094, 447.8865661621094 33.421382904052734, 447.7415466308594 35.86920928955078, 449.69683837890625 35.5111198425293"  fill="none" stroke="#000000" stroke-width="1" stroke-linecap="round" stroke-linejoin="round"/>
<path d="M460.68023681640625 26.29608154296875C 459.8846740722656 26.60780143737793, 458.6893005371094 26.97722625732422, 457.6495056152344 27.806074142456055, 456.9372863769531 28.37381935119629, 456.3463439941406 29.21809959411621, 455.9227294921875 30.230224609375, 455.3506164550781 31.597084045410156, 455.2871398925781 33.395172119140625, 455.4058532714844 34.98874282836914, 455.4996643066406 36.247859954833984, 455.7707824707031 37.392127990722656, 456.2281494140625 38.237266540527344, 457.5384826660156 40.65867233276367, 460.83856201171875 40.17667770385742, 463.27630615234375 38.278076171875, 464.6888427734375 37.17795944213867, 465.7658996582031 35.478023529052734, 466.22479248046875 33.78074645996094, 466.4879150390625 32.807613372802734, 466.5963439941406 31.82711410522461, 466.3892517089844 30.92400550842285, 465.5100402832031 27.08994483947754, 457.651611328125 25.30840301513672, 459.0356750488281 29.06304168701172"  fill="none" stroke="#000000" stroke-width="1" stroke-linecap="round" stroke-linejoin="round"/>
<path d="M479.85125732421875 16.68926429748535C 479.48345947265625 16.584598541259766, 478.97930908203125 16.716796875, 478.37115478515625 17.42385482788086, 478.0680847167969 17.776201248168945, 477.733642578125 18.262819290161133, 477.3843994140625 18.9420108795166, 476.6155700683594 20.43722152709961, 475.81036376953125 22.738906860351562, 475.17596435546875 25.430896759033203, 474.7406921386719 27.278060913085938, 474.4642639160156 29.29237174987793, 474.2714538574219 31.18519401550293, 474.08099365234375 33.055057525634766, 474.00933837890625 34.814002990722656, 474.0952453613281 36.24570846557617, 474.1936340332031 37.88505935668945, 474.6309814453125 39.001590728759766, 475.3052062988281 39.70644760131836, 475.8774719238281 40.30473709106445, 476.72119140625 40.55192947387695, 477.51361083984375 40.70222854614258, 478.8454895019531 40.954837799072266, 480.14971923828125 41.07548904418945, 481.31964111328125 40.35942077636719, 482.89495849609375 39.39520263671875, 484.0892333984375 36.99958419799805, 484.5617980957031 34.947933197021484"  fill="none" stroke="#000000" stroke-width="1" stroke-linecap="round" stroke-linejoin="round"/>
<path d="M471.2407531738281 31.960594177246094C 470.6417541503906 32.23836898803711, 473.96453857421875 30.98993492126465, 477.4666442871094 29.88741683959961, 478.8175048828125 29.462139129638672, 480.21038818359375 29.066049575805664, 481.40185546875 28.761043548583984, 483.5665588378906 28.206892013549805, 485.0156555175781 28.10081672668457, 485.1256408691406 28.45904541015625"  fill="none" stroke="#000000" stroke-width="1" stroke-linecap="round" stroke-linejoin="round"/>
<path d="M486.4178161621094 30.409791946411133C 487.0499267578125 30.423500061035156, 487.6299133300781 30.502721786499023, 488.4617919921875 30.230224609375, 488.8146057128906 30.11464500427246, 489.20233154296875 29.903810501098633, 489.6717224121094 29.62622833251953, 490.9525451660156 28.868770599365234, 492.693115234375 27.692352294921875, 493.912353515625 26.467487335205078, 494.6171875 25.759416580200195, 495.1054382324219 25.01168441772461, 495.333740234375 24.39430809020996, 495.5494079589844 23.811138153076172, 495.4605712890625 23.329715728759766, 495.0753173828125 23.006746292114258, 494.63958740234375 22.641443252563477, 493.8372497558594 22.50108528137207, 492.91387939453125 22.574153900146484, 491.0931091308594 22.718236923217773, 488.783447265625 24.201202392578125, 487.1578674316406 26.165489196777344, 485.113525390625 28.63578224182129, 484.4938049316406 32.36393737792969, 485.59552001953125 34.776527404785156, 486.9013671875 37.63609313964844, 491.06549072265625 38.45896530151367, 499.26898193359375 35.6417121887207"  fill="none" stroke="#000000" stroke-width="1" stroke-linecap="round" stroke-linejoin="round"/>
<path d="M543.8721313476562 13.39992904663086C 544.9049682617188 12.635904312133789, 544.4922485351562 11.945561408996582, 543.3082885742188 11.669559478759766, 542.66259765625 11.519033432006836, 541.7589721679688 11.44235897064209, 540.677001953125 11.538965225219727, 538.8154296875 11.705180168151855, 536.6239013671875 12.476819038391113, 535.3555908203125 13.187713623046875, 534.8670654296875 13.46155834197998, 534.4686279296875 13.677444458007812, 534.3101196289062 13.963115692138672, 534.1675415039062 14.220196723937988, 534.4679565429688 14.575711250305176, 534.9209594726562 15.260892868041992, 535.301513671875 15.836469650268555, 535.8043212890625 16.65266227722168, 536.30712890625 17.774826049804688, 536.6959838867188 18.64260482788086, 537.0709838867188 19.680620193481445, 537.3878173828125 20.84378433227539, 537.8318481445312 22.473726272583008, 538.031005859375 24.364965438842773, 538.1631469726562 26.124677658081055, 538.3236694335938 28.26304054260254, 538.2030029296875 30.21933364868164, 538.033935546875 31.487192153930664, 537.8143920898438 33.1337776184082, 537.1820068359375 33.42344665527344, 537.7755126953125 32.091190338134766"  fill="none" stroke="#000000" stroke-width="1" stroke-linecap="round" stroke-linejoin="round"/>
<path d="M532.148681640625 25.82267951965332C 532.0403442382812 26.141979217529297, 532.0496215820312 26.37096405029297, 532.2778930664062 26.467487335205078, 533.360595703125 26.925302505493164, 539.5020751953125 24.34874725341797, 544.04833984375 23.61074447631836"  fill="none" stroke="#000000" stroke-width="1" stroke-linecap="round" stroke-linejoin="round"/>
<path d="M546.3390502929688 23.651554107666016C 545.4075317382812 24.00018882751465, 544.3775634765625 24.34803009033203, 543.7899169921875 25.12889862060547, 543.4247436523438 25.614215850830078, 543.32763671875 26.33534812927246, 543.3552856445312 27.03067398071289, 543.3761596679688 27.555797576904297, 543.3876342773438 28.09810447692871, 543.6137084960938 28.589637756347656, 544.0782470703125 29.599573135375977, 545.5449829101562 30.204113006591797, 546.9498901367188 30.491413116455078, 548.0992431640625 30.726463317871094, 549.3280029296875 30.687088012695312, 550.3682250976562 30.320009231567383, 551.7769775390625 29.822887420654297, 552.721435546875 28.407732009887695, 553.1287841796875 27.03067398071289, 553.3587646484375 26.25319480895996, 553.4365234375 25.466245651245117, 553.2579956054688 24.737117767333984, 552.9794311523438 23.599506378173828, 551.9259643554688 22.632413864135742, 550.755859375 22.100751876831055, 550.1591796875 21.829641342163086, 549.4788208007812 21.771116256713867, 548.8528442382812 21.79875373840332, 547.8456420898438 21.843223571777344, 546.9458618164062 22.366016387939453, 546.385986328125 23.09653091430664, 545.5386962890625 24.20208740234375, 545.5301513671875 25.892929077148438, 546.5974731445312 26.598081588745117"  fill="none" stroke="#000000" stroke-width="1" stroke-linecap="round" stroke-linejoin="round"/>
<path d="M555.5603637695312 25.210519790649414C 555.8251953125 25.21759796142578, 555.8367309570312 26.330814361572266, 555.8187866210938 27.463266372680664, 555.8110961914062 27.952749252319336, 555.8489990234375 28.45369529724121, 555.8187866210938 28.891637802124023, 555.786376953125 29.362232208251953, 555.639892578125 29.7667179107666, 555.5133666992188 29.969038009643555, 555.3675537109375 30.202329635620117, 555.0545043945312 29.99344825744629, 555.125732421875 29.414012908935547, 555.1925659179688 28.870582580566406, 555.4934692382812 28.080204010009766, 556.0772705078125 27.161266326904297, 557.0386352539062 25.647890090942383, 558.8527221679688 23.933515548706055, 560.8817749023438 22.745559692382812, 563.6359252929688 21.133066177368164, 566.9703979492188 20.783245086669922, 568.6582641601562 22.05177879333496"  fill="none" stroke="#000000" stroke-width="1" stroke-linecap="round" stroke-linejoin="round"/>
<path d="M83.22711944580078 75.23616790771484C 83.47404479980469 74.40815734863281, 83.54875183105469 75.37604522705078, 83.56777954101562 77.39913177490234, 83.59132385253906 79.90259552001953, 83.52272033691406 83.8632583618164, 83.35633087158203 86.48357391357422, 83.29415893554688 87.46272277832031, 83.17263793945312 88.23944091796875, 83.097900390625 88.68734741210938, 83.02976989746094 89.09564971923828, 82.91047668457031 88.89945220947266, 82.96868133544922 88.30372619628906, 83.057373046875 87.39598083496094, 83.62503051757812 85.63452911376953, 84.17861938476562 83.7574234008789, 84.70602416992188 81.96910095214844, 85.29963684082031 80.04118347167969, 85.95240783691406 78.43572235107422, 86.48802185058594 77.11839294433594, 87.10470581054688 76.04375457763672, 87.64397430419922 75.4075698852539, 88.67432403564453 74.19203186035156, 89.60636138916016 75.50923919677734, 90.24005126953125 77.70112609863281, 90.59403991699219 78.92556762695312, 90.83634185791016 80.36551666259766, 91.01535034179688 81.55364990234375, 91.1091079711914 82.17599487304688, 91.14151000976562 82.73953247070312, 91.22679138183594 83.11261749267578, 91.32185363769531 83.52845001220703, 91.48401641845703 83.77317810058594, 91.66143035888672 83.71661376953125, 92.03032684326172 83.5989990234375, 92.30960845947266 82.06767272949219, 92.83612060546875 80.55786895751953, 93.44955444335938 78.79885864257812, 94.51175689697266 76.68457794189453, 95.56141662597656 74.67298126220703, 96.10681915283203 73.62775421142578, 96.6924819946289 72.64530944824219, 97.20599365234375 71.81623840332031, 97.85932922363281 70.76141357421875, 98.38306427001953 69.978515625, 98.80357360839844 69.65327453613281, 99.07623291015625 69.44239807128906, 99.21731567382812 69.39567565917969, 99.40267181396484 69.69408416748047, 100.06954956054688 70.76770782470703, 100.81155395507812 73.60155487060547, 101.48188018798828 76.44416046142578, 101.8548812866211 78.02591705322266, 102.23540496826172 79.57035827636719, 102.48037719726562 80.94149017333984, 102.7890625 82.66927337646484, 102.76881408691406 84.10112762451172, 102.82103729248047 84.79401397705078, 102.89163208007812 85.73067474365234, 102.9100570678711 84.84208679199219, 104.07795715332031 81.80667877197266"  fill="none" stroke="#000000" stroke-width="1" stroke-linecap="round" stroke-linejoin="round"/>
<path d="M110.91468811035156 72.07742309570312C 110.4288330078125 72.45406341552734, 109.84471130371094 72.74996185302734, 109.35234069824219 73.45682525634766, 109.05827331542969 73.87899780273438, 108.79864501953125 74.44083404541016, 108.62403106689453 75.18719482421875, 108.4395751953125 75.97563934326172, 108.38731384277344 76.96131134033203, 108.44782257080078 78.04393768310547, 108.49610900878906 78.90772247314453, 108.54721069335938 79.83035278320312, 108.75325012207031 80.68846893310547, 109.08441925048828 82.0677490234375, 110.01882934570312 83.19464874267578, 110.91468811035156 83.88801574707031, 111.59246063232422 84.41259765625, 112.37462615966797 84.58628845214844, 113.12311553955078 84.45120239257812, 115.53035736083984 84.01676177978516, 117.62490844726562 79.21218872070312, 118.70291900634766 75.23616790771484"  fill="none" stroke="#000000" stroke-width="1" stroke-linecap="round" stroke-linejoin="round"/>
<path d="M118.60894012451172 72.51001739501953C 118.11783599853516 72.24556732177734, 117.62165069580078 72.36126708984375, 117.39900207519531 73.20379638671875, 117.26950073242188 73.69386291503906, 117.26944732666016 74.43304443359375, 117.36376190185547 75.44837951660156, 117.48588562011719 76.7630386352539, 117.88484191894531 78.5146713256836, 118.26828002929688 80.63949584960938, 118.66365051269531 82.8304443359375, 119.04556274414062 85.37374877929688, 119.30200958251953 87.91194152832031, 119.60044860839844 90.86576843261719, 119.76019287109375 93.79441833496094, 119.47821807861328 96.39238739013672, 119.28966522216797 98.12958526611328, 118.77291870117188 99.72466278076172, 118.2212905883789 101.06928253173828, 117.82958984375 102.0240707397461, 117.417724609375 102.84288024902344, 116.92912292480469 103.48527526855469, 116.29999542236328 104.31243896484375, 115.55531311035156 104.83123016357422, 114.67371368408203 105.09320831298828, 113.0109634399414 105.58731842041016, 110.833740234375 105.17774963378906, 109.01168060302734 104.22802734375, 108.20703887939453 103.8086166381836, 107.43380737304688 103.33964538574219, 106.8502426147461 102.70986938476562, 106.0814208984375 101.88018035888672, 105.75224304199219 100.71719360351562, 105.76952362060547 99.51032257080078, 105.78787231445312 98.22872924804688, 106.2637710571289 96.84400177001953, 107.1556625366211 95.65779876708984, 108.27213287353516 94.17289733886719, 110.41481018066406 93.25240325927734, 112.43004608154297 92.58068084716797"  fill="none" stroke="#000000" stroke-width="1" stroke-linecap="round" stroke-linejoin="round"/>
<path d="M146.00283813476562 69.95527648925781C 146.08917236328125 70.81831359863281, 146.1728973388672 71.35198974609375, 146.2965087890625 72.37942504882812, 146.3802947998047 73.07588958740234, 146.5007781982422 73.97026824951172, 146.5666961669922 75.05660247802734, 146.65130615234375 76.45101165771484, 146.6478729248047 78.11509704589844, 146.6019287109375 79.51312255859375, 146.57821655273438 80.23486328125, 146.5211181640625 80.89080810546875, 146.47271728515625 81.37408447265625, 146.4106903076172 81.99333190917969, 146.26805114746094 82.30393981933594, 146.2965087890625 82.15764617919922, 146.3762664794922 81.74767303466797, 146.78656005859375 80.65872192382812, 147.2127685546875 79.39068603515625, 148.23550415039062 76.34800720214844, 149.89756774902344 72.11730194091797, 151.40643310546875 70.08586883544922, 152.329833984375 68.8426742553711, 153.15609741210938 68.41873168945312, 153.7910614013672 69.090087890625, 154.20143127441406 69.52396392822266, 154.4789276123047 70.48458099365234, 154.77781677246094 71.72645568847656, 155.09414672851562 73.04085540771484, 155.40469360351562 74.65404510498047, 155.64707946777344 76.14216613769531, 155.83871459960938 77.3185806274414, 155.94940185546875 78.42610168457031, 156.08172607421875 79.26009368896484, 156.23077392578125 80.19950103759766, 156.32315063476562 80.72242736816406, 156.6455841064453 80.81906127929688, 157.5883331298828 81.10160064697266, 160.09738159179688 78.09960174560547, 163.5645294189453 76.23194885253906"  fill="none" stroke="#000000" stroke-width="1" stroke-linecap="round" stroke-linejoin="round"/>
<path d="M167.499755859375 72.51001739501953C 167.06716918945312 72.12989044189453, 166.27841186523438 71.77591705322266, 165.38531494140625 71.85704803466797, 164.93301391601562 71.89813995361328, 164.4499969482422 71.96770477294922, 163.99917602539062 72.33045196533203, 163.3558807373047 72.84805297851562, 162.8707733154297 73.90973663330078, 162.5308074951172 75.10557556152344, 162.1837615966797 76.32630157470703, 162.073974609375 77.76947784423828, 162.2253875732422 79.12950134277344, 162.3204345703125 79.98332214355469, 162.48594665527344 80.8111343383789, 162.7892303466797 81.50467681884766, 163.4432373046875 83.0002212524414, 165.1051788330078 83.58397674560547, 166.59524536132812 83.4962387084961, 168.830078125 83.36463928222656, 170.81234741210938 80.8567886352539, 171.4819793701172 78.09291076660156, 171.73133850097656 77.06370544433594, 171.7731170654297 75.9892349243164, 171.65818786621094 75.01579284667969, 171.1259765625 70.50818634033203, 165.32432556152344 68.82317352294922, 166.06663513183594 72.64060974121094"  fill="none" stroke="#000000" stroke-width="1" stroke-linecap="round" stroke-linejoin="round"/>
<path d="M181.2554473876953 59.74446105957031C 181.28009033203125 59.08861541748047, 181.01670837402344 58.419456481933594, 180.69158935546875 58.44668197631836, 180.52908325195312 58.460289001464844, 180.3507080078125 58.65989685058594, 180.1747283935547 59.091487884521484, 179.82586669921875 59.94709014892578, 179.6145782470703 61.52684783935547, 179.39942932128906 63.46638870239258, 179.23037719726562 64.99032592773438, 179.0895538330078 66.74320220947266, 179.01177978515625 68.61668395996094, 178.9297637939453 70.59234619140625, 178.8587188720703 72.68335723876953, 178.96478271484375 74.54238891601562, 179.0903778076172 76.74333953857422, 179.62513732910156 78.55836486816406, 180.2569580078125 79.7334976196289, 180.83810424804688 80.81439208984375, 181.68162536621094 81.21170043945312, 182.55935668945312 81.20268249511719, 183.62384033203125 81.19173431396484, 184.83229064941406 80.41957092285156, 186.01295471191406 79.56209564208984, 188.53543090820312 77.73011016845703, 190.8974609375 76.02482604980469, 189.39608764648438 75.44837951660156"  fill="none" stroke="#000000" stroke-width="1" stroke-linecap="round" stroke-linejoin="round"/>
<path d="M175.72262573242188 72.55082702636719C 175.51759338378906 72.53023529052734, 175.1886444091797 72.3627700805664, 175.15878295898438 72.15904998779297, 175.0798797607422 71.62091827392578, 181.1683807373047 70.55054473876953, 185.5430908203125 69.65327453613281"  fill="none" stroke="#000000" stroke-width="1" stroke-linecap="round" stroke-linejoin="round"/>
<path d="M205.7478485107422 68.05349731445312C 205.0180206298828 68.34038543701172, 203.6881103515625 67.6392593383789, 202.62315368652344 68.18409729003906, 202.2554168701172 68.37222290039062, 201.94544982910156 68.77763366699219, 201.63641357421875 69.39208984375, 201.0144805908203 70.628662109375, 200.52015686035156 72.65104675292969, 200.33250427246094 74.54238891601562, 200.25038146972656 75.36998748779297, 200.25732421875 76.16390991210938, 200.33250427246094 76.83594512939453, 200.60252380371094 79.2497787475586, 202.94102478027344 79.35579681396484, 204.74935913085938 78.09291076660156, 206.20811462402344 77.07414245605469, 207.16749572753906 75.1639633178711, 207.78005981445312 73.15482330322266, 208.15631103515625 71.9207763671875, 208.3594512939453 70.60799407958984, 208.47314453125 69.56349182128906, 208.53297424316406 69.01371765136719, 208.5499267578125 68.53569793701172, 208.55535888671875 68.22490692138672, 208.5606689453125 67.92237091064453, 208.52981567382812 67.77325439453125, 208.5083770751953 67.83312225341797, 208.412109375 68.10198974609375, 208.38909912109375 69.21722412109375, 208.47314453125 70.47765350341797, 208.56329345703125 71.82994079589844, 209.00439453125 73.41878509521484, 209.63609313964844 74.75460052490234, 210.16201782226562 75.86677551269531, 210.9158172607422 76.72544860839844, 211.71530151367188 77.17874908447266, 213.51425170898438 78.19876861572266, 215.9313201904297 76.57589721679688, 216.55503845214844 74.75460052490234"  fill="none" stroke="#000000" stroke-width="1" stroke-linecap="round" stroke-linejoin="round"/>
<path d="M219.3273162841797 53.99016189575195C 219.03814697265625 54.55125427246094, 218.95462036132812 54.849700927734375, 218.93966674804688 55.6307487487793, 218.93008422851562 56.131717681884766, 218.91311645507812 56.80408477783203, 218.93966674804688 57.75290298461914, 218.96914672851562 58.805824279785156, 218.9991912841797 60.130271911621094, 219.0688934326172 61.64623260498047, 219.167724609375 63.795570373535156, 219.39144897460938 66.29611206054688, 219.5387725830078 68.61668395996094, 219.6809539794922 70.85643768310547, 219.72389221191406 72.9283676147461, 219.761962890625 74.50157928466797, 219.78759765625 75.56082916259766, 219.7706756591797 76.33401489257812, 219.761962890625 76.83594512939453, 219.73446655273438 78.41796112060547, 219.6347198486328 76.89530944824219, 219.8441925048828 74.97498321533203, 220.080810546875 72.80570220947266, 220.76087951660156 69.9454116821289, 221.9703826904297 68.61668395996094, 222.35853576660156 68.19027709960938, 222.85202026367188 67.96644592285156, 223.3917694091797 67.92290496826172, 224.10899353027344 67.86505126953125, 224.9276123046875 68.11621856689453, 225.64718627929688 68.82890319824219, 226.42672729492188 69.60098266601562, 226.92367553710938 70.9847640991211, 227.29176330566406 72.28964233398438, 227.77268981933594 73.99462127685547, 227.94871520996094 75.65089416503906, 227.58543395996094 76.91756439208984, 227.1842498779297 78.3163833618164, 225.86117553710938 79.1864242553711, 224.4724884033203 79.51312255859375, 223.7684783935547 79.67874145507812, 223.03550720214844 79.71502685546875, 222.3580322265625 79.56209564208984, 219.95851135253906 79.02041625976562, 218.55752563476562 75.07266235351562, 220.88966369628906 73.75881958007812"  fill="none" stroke="#000000" stroke-width="1" stroke-linecap="round" stroke-linejoin="round"/>
<path d="M235.6790771484375 73.07320404052734C 235.2768096923828 73.35958862304688, 234.7940216064453 73.86632537841797, 234.55137634277344 74.54238891601562, 234.44725036621094 74.83248138427734, 234.44033813476562 75.1776123046875, 234.4221649169922 75.48919677734375, 234.39686584472656 75.92261505126953, 234.4608917236328 76.31937408447266, 234.4221649169922 76.44416046142578, 234.3772430419922 76.5888671875, 234.4368896484375 76.70663452148438, 234.3869171142578 76.66453552246094, 234.28924560546875 76.58226776123047, 234.2255859375 76.322998046875, 234.0814971923828 75.97075653076172"  fill="none" stroke="#000000" stroke-width="1" stroke-linecap="round" stroke-linejoin="round"/>
<path d="M235.7613067626953 63.67860412597656C 235.47979736328125 64.03489685058594, 234.4036865234375 65.87925720214844, 236.19595336914062 66.44556427001953"  fill="none" stroke="#000000" stroke-width="1" stroke-linecap="round" stroke-linejoin="round"/>
<path d="M243.72573852539062 52.210819244384766C 244.0005645751953 51.854190826416016, 244.13841247558594 51.720314025878906, 244.20736694335938 52.12919998168945, 244.2647705078125 52.46958541870117, 244.24668884277344 53.13495635986328, 244.24261474609375 54.16156768798828, 244.23500061035156 56.0799446105957, 244.34906005859375 59.0566520690918, 244.371826171875 62.47060775756836, 244.38658142089844 64.68250274658203, 244.37966918945312 67.0194320678711, 244.371826171875 69.090087890625, 244.36489868164062 70.92021942138672, 244.3507843017578 72.4857406616211, 244.3365936279297 73.71800994873047, 244.2878875732422 77.94416046142578, 244.3895721435547 77.4664077758789, 245.19412231445312 75.97075653076172"  fill="none" stroke="#000000" stroke-width="1" stroke-linecap="round" stroke-linejoin="round"/>
<path d="M253.11155700683594 71.5550537109375C 252.35011291503906 71.42972564697266, 252.0566864013672 77.58006286621094, 252.85313415527344 73.45682525634766"  fill="none" stroke="#000000" stroke-width="1" stroke-linecap="round" stroke-linejoin="round"/>
<path d="M253.46397399902344 62.64201354980469C 253.19732666015625 63.78138732910156, 251.42181396484375 64.90845489501953, 253.20553588867188 65.58037567138672"  fill="none" stroke="#000000" stroke-width="1" stroke-linecap="round" stroke-linejoin="round"/>
<path d="M262.673583984375 53.25557327270508C 262.438720703125 53.38282012939453, 262.1924743652344 53.724239349365234, 261.9804992675781 54.724754333496094, 261.8452453613281 55.3632698059082, 261.7294616699219 56.235328674316406, 261.6398620605469 57.36111831665039, 261.4742736816406 59.440879821777344, 261.4670715332031 62.253238677978516, 261.5106201171875 65.066162109375, 261.54656982421875 67.38713073730469, 261.6125183105469 69.70660400390625, 261.7690734863281 71.51423645019531, 261.93902587890625 73.47673797607422, 262.3150329589844 74.64298248291016, 262.75579833984375 75.23616790771484, 262.9835205078125 75.54261779785156, 263.2657165527344 75.62776947021484, 263.6250915527344 75.61978912353516, 264.0001525878906 75.61145782470703, 264.4598693847656 75.73684692382812, 265.01123046875 75.61978912353516, 267.33905029296875 75.12557983398438, 270.8772888183594 72.81120300292969, 270.9786682128906 71.3836441040039"  fill="none" stroke="#000000" stroke-width="1" stroke-linecap="round" stroke-linejoin="round"/>
<path d="M256.40069580078125 66.44556427001953C 257.0619812011719 66.4315414428711, 257.3703308105469 66.49095153808594, 257.91607666015625 66.44556427001953, 258.2746276855469 66.41574096679688, 258.7121276855469 66.31568145751953, 259.3022155761719 66.19253540039062, 262.34149169921875 65.5582504272461, 268.3929443359375 64.2006607055664, 270.12115478515625 65.14778137207031"  fill="none" stroke="#000000" stroke-width="1" stroke-linecap="round" stroke-linejoin="round"/>
<path d="M271.7657165527344 65.40897369384766C 271.6967468261719 64.72968292236328, 274.0557861328125 74.36229705810547, 277.34552001953125 73.114013671875"  fill="none" stroke="#000000" stroke-width="1" stroke-linecap="round" stroke-linejoin="round"/>
<path d="M280.4114685058594 65.71096801757812C 280.1002197265625 65.89237976074219, 280.0406494140625 66.2076644897461, 280.0238342285156 67.00875091552734, 279.9986877441406 68.20641326904297, 279.9591064453125 70.2574691772461, 279.7654113769531 72.9834213256836, 279.6393737792969 74.75701904296875, 279.4345703125 76.7613754272461, 279.1545715332031 78.77852630615234, 278.7775573730469 81.49427795410156, 278.1521911621094 84.21578216552734, 277.5099792480469 86.44276428222656, 275.6244812011719 92.98121643066406, 272.7384338378906 94.16992950439453, 270.6732482910156 92.02565002441406"  fill="none" stroke="#000000" stroke-width="1" stroke-linecap="round" stroke-linejoin="round"/>
<path d="M308.2752685546875 64.41319274902344C 308.0713195800781 64.35707092285156, 307.826171875 64.11992645263672, 307.6644287109375 64.07038116455078, 307.56292724609375 64.039306640625, 307.520263671875 64.39254760742188, 307.5821838378906 64.9355697631836, 307.70867919921875 66.0445556640625, 308.0351257324219 68.03321838378906, 308.4866943359375 69.95527648925781, 308.7452087402344 71.05558776855469, 309.0231628417969 72.12139892578125, 309.3089904785156 72.9834213256836, 309.91778564453125 74.8195571899414, 310.6286926269531 75.66768646240234, 311.3882141113281 75.23616790771484, 312.06304931640625 74.85274505615234, 312.6915283203125 73.37250518798828, 313.5026550292969 71.21224212646484, 314.3680419921875 68.90746307373047, 315.4896545410156 65.80821228027344, 316.4041442871094 63.507198333740234, 316.74554443359375 62.648216247558594, 317.0502014160156 61.915191650390625, 317.30865478515625 61.38504409790039, 317.55389404296875 60.882083892822266, 317.7356262207031 60.56702423095703, 317.8725280761719 60.47904968261719, 318.33203125 60.18375778198242, 317.87908935546875 64.64252471923828, 318.4833679199219 65.75994110107422"  fill="none" stroke="#000000" stroke-width="1" stroke-linecap="round" stroke-linejoin="round"/>
<path d="M323.4170837402344 67.87393188476562C 323.3483581542969 67.7115707397461, 323.36065673828125 69.57977294921875, 323.3700866699219 71.21224212646484, 323.3747863769531 72.02228546142578, 323.3700866699219 72.77539825439453, 323.3700866699219 73.20379638671875, 323.3700866699219 73.96794891357422, 323.27984619140625 73.03892517089844, 323.5462951660156 69.8246841430664"  fill="none" stroke="#000000" stroke-width="1" stroke-linecap="round" stroke-linejoin="round"/>
<path d="M323.6755065917969 61.12385940551758C 323.4012451171875 61.29716491699219, 321.9814453125 63.088809967041016, 323.9809265136719 64.16016387939453"  fill="none" stroke="#000000" stroke-width="1" stroke-linecap="round" stroke-linejoin="round"/>
<path d="M332.75592041015625 65.066162109375C 332.87884521484375 65.3569107055664, 333.489501953125 65.66455841064453, 334.0950622558594 65.71096801757812, 334.7198791503906 65.75885772705078, 335.3271789550781 65.24168395996094, 335.65740966796875 64.54378509521484, 335.851806640625 64.13294219970703, 335.9732360839844 63.6696891784668, 335.91583251953125 63.2052001953125, 335.8491516113281 62.66546630859375, 335.533203125 62.134735107421875, 335.09356689453125 61.8176383972168, 334.1015930175781 61.102195739746094, 331.8606872558594 62.230865478515625, 330.3360290527344 64.11119842529297, 328.7892761230469 66.01879119873047, 327.9443054199219 69.01776123046875, 328.2215881347656 71.46526336669922, 328.36517333984375 72.73265838623047, 328.863525390625 73.84771728515625, 329.6429748535156 74.54238891601562, 331.63946533203125 76.32176208496094, 335.9565734863281 74.79252624511719, 339.0757751464844 71.81623840332031"  fill="none" stroke="#000000" stroke-width="1" stroke-linecap="round" stroke-linejoin="round"/>
<path d="M342.88177490234375 66.9271240234375C 342.5494689941406 67.7216796875, 342.2132568359375 68.0897216796875, 342.01251220703125 68.56771087646484, 341.7739562988281 69.1357192993164, 341.7252502441406 69.86408233642578, 341.8480529785156 70.68986511230469, 342.0616149902344 72.12601470947266, 343.351318359375 73.59563446044922, 344.7847900390625 74.02001190185547, 345.3587951660156 74.18994140625, 345.9374694824219 74.20242309570312, 346.4763488769531 74.02001190185547, 347.6151123046875 73.63455963134766, 348.4511413574219 71.90201568603516, 348.9432067871094 70.55927276611328, 349.1850891113281 69.89920043945312, 349.2684020996094 69.30126190185547, 349.33087158203125 68.91868591308594, 349.3981018066406 68.50689697265625, 349.4119567871094 68.29281616210938, 349.4130859375 68.43711853027344, 349.4158020019531 68.78540802001953, 349.37652587890625 69.48523712158203, 349.4130859375 70.21646118164062, 349.4991149902344 71.93643188476562, 350.62457275390625 73.7896957397461, 352.2206115722656 74.45260620117188, 354.0009765625 75.19207000732422, 356.3106384277344 74.30583190917969, 357.6359558105469 72.24883270263672, 358.191650390625 71.38636779785156, 358.5057373046875 70.33381652832031, 358.669677734375 69.17170715332031, 359.26080322265625 64.98197937011719, 357.1064758300781 58.94920349121094, 354.47601318359375 62.20941925048828"  fill="none" stroke="#000000" stroke-width="1" stroke-linecap="round" stroke-linejoin="round"/>
<path d="M365.5886535644531 67.6617202758789C 366.4965515136719 67.35284423828125, 367.3771057128906 66.49224853515625, 367.89105224609375 65.3681640625, 368.3664245605469 64.32847595214844, 368.5827331542969 62.85539245605469, 368.3609313964844 61.8176383972168, 368.2312927246094 61.21105194091797, 367.9932556152344 60.74802780151367, 367.4564208984375 60.650455474853516, 366.8439025878906 60.53913497924805, 365.93994140625 60.899627685546875, 364.94256591796875 61.73601531982422, 363.64208984375 62.82657241821289, 362.3755187988281 64.78849792480469, 361.48895263671875 66.66593933105469, 360.7939453125 68.13775634765625, 360.49591064453125 69.66329956054688, 360.490478515625 70.99186706542969, 360.48712158203125 71.80947875976562, 360.5108947753906 72.56830596923828, 360.7489013671875 73.20379638671875, 361.2172546386719 74.45438385009766, 362.768798828125 75.05451202392578, 364.2964782714844 75.18719482421875, 367.261474609375 75.4447021484375, 370.74053955078125 73.13711547851562, 371.5678405761719 70.42868041992188"  fill="none" stroke="#000000" stroke-width="1" stroke-linecap="round" stroke-linejoin="round"/>
<path d="M374.328369140625 65.84156799316406C 374.3009033203125 66.56986236572266, 374.3011169433594 68.15554809570312, 374.42236328125 69.8246841430664, 374.4918212890625 70.78108978271484, 374.6338806152344 71.7615737915039, 374.727783203125 72.51001739501953, 374.781005859375 72.93428802490234, 374.8255615234375 73.2647933959961, 374.85699462890625 73.45682525634766, 374.8975524902344 73.70475769042969, 374.8910827636719 73.70481872558594, 374.8922424316406 73.37520599365234, 374.89501953125 72.58443450927734, 374.85223388671875 70.57677459716797, 375.5030822753906 68.18409729003906, 375.8399658203125 66.94554901123047, 376.3776550292969 65.60566711425781, 377.0536804199219 64.37238311767578, 377.58544921875 63.40226364135742, 378.2307434082031 62.49734115600586, 378.92144775390625 61.77682876586914, 381.401123046875 59.190128326416016, 385.1535949707031 59.881988525390625, 389.3057556152344 61.254451751708984"  fill="none" stroke="#000000" stroke-width="1" stroke-linecap="round" stroke-linejoin="round"/>
<path d="M399.2906494140625 51.174232482910156C 399.4059143066406 50.592002868652344, 399.4859924316406 50.90017318725586, 399.549072265625 51.82720184326172, 399.63153076171875 53.03840637207031, 399.6883544921875 55.263187408447266, 399.72528076171875 57.62230682373047, 399.74755859375 59.04557800292969, 399.7632751464844 60.5124397277832, 399.77227783203125 61.8176383972168, 399.7857360839844 63.766815185546875, 399.75531005859375 65.23948669433594, 399.77227783203125 66.10275268554688, 399.80511474609375 67.77194213867188, 400.2396545410156 66.62664031982422, 401.5930480957031 64.41319274902344"  fill="none" stroke="#000000" stroke-width="1" stroke-linecap="round" stroke-linejoin="round"/>
<path d="M401.49908447265625 76.18297576904297C 401.30474853515625 76.87568664550781, 400.39306640625 76.08955383300781, 399.9014892578125 75.2769775390625, 399.70068359375 74.94503784179688, 399.6205749511719 74.58515167236328, 399.5960693359375 74.28119659423828, 399.564453125 73.88909149169922, 399.6430358886719 73.57772064208984, 399.948486328125 73.50579833984375, 400.6490478515625 73.34083557128906, 402.06072998046875 74.7289047241211, 402.5798034667969 75.66876220703125, 403.161865234375 76.72265625, 402.57025146484375 77.54837036132812, 399.9837341308594 75.61978912353516"  fill="none" stroke="#000000" stroke-width="1" stroke-linecap="round" stroke-linejoin="round"/>
<path d="M97.67587280273438 136.32965087890625C 97.97772979736328 135.4246826171875, 97.48028564453125 134.800537109375, 96.80659484863281 134.9420928955078, 95.92586517333984 135.1271514892578, 94.66455841064453 136.7270965576172, 93.56443786621094 138.53343200683594, 92.87471771240234 139.66590881347656, 92.29243469238281 140.9057159423828, 92.04907989501953 141.87173461914062, 91.51438903808594 143.99417114257812, 93.7710952758789 144.1792755126953, 95.46744537353516 143.4715118408203, 96.96258544921875 142.8477020263672, 98.04785919189453 141.21290588378906, 98.36894226074219 139.48838806152344, 98.53096008300781 138.6181640625, 98.51227569580078 137.69554138183594, 98.49815368652344 136.9826202392578, 98.48973083496094 136.557373046875, 98.53202056884766 136.203369140625, 98.49815368652344 136.02764892578125, 98.46923065185547 135.8775634765625, 98.2864990234375 135.84564208984375, 98.19273376464844 135.9378662109375, 97.99260711669922 136.1347198486328, 98.11955261230469 137.2718505859375, 98.1574935913086 138.71299743652344, 98.17796325683594 139.49041748046875, 98.14580535888672 140.4169921875, 98.19273376464844 141.52076721191406, 98.25535583496094 142.99356079101562, 98.49430847167969 144.73927307128906, 98.62737274169922 146.49966430664062, 98.71104431152344 147.6065673828125, 98.73486328125 148.72744750976562, 98.756591796875 149.74818420410156, 98.81687927246094 152.5811004638672, 98.67107391357422 154.56509399414062, 97.5466537475586 155.75550842285156, 97.02561950683594 156.30711364746094, 96.29579162597656 156.6669921875, 95.43219757080078 156.8818817138672, 94.73915100097656 157.0543212890625, 93.94893646240234 157.06890869140625, 93.17678833007812 157.01246643066406, 92.16278839111328 156.9383544921875, 91.16191864013672 156.6883087158203, 90.3692626953125 156.23707580566406, 87.52763366699219 154.61940002441406, 87.91085052490234 150.2076873779297, 92.65991973876953 149.09521484375"  fill="none" stroke="#000000" stroke-width="1" stroke-linecap="round" stroke-linejoin="round"/>
<path d="M105.89873504638672 144.33670043945312C 106.82286071777344 146.46144104003906, 106.46028137207031 151.6575927734375, 105.33488464355469 144.7284698486328"  fill="none" stroke="#000000" stroke-width="1" stroke-linecap="round" stroke-linejoin="round"/>
<path d="M106.28638458251953 137.84780883789062C 106.24642181396484 138.15042114257812, 104.18092346191406 140.35699462890625, 106.46259307861328 139.65980529785156"  fill="none" stroke="#000000" stroke-width="1" stroke-linecap="round" stroke-linejoin="round"/>
<path d="M111.65474700927734 132.04454040527344C 111.69351196289062 131.4708251953125, 111.668701171875 130.77081298828125, 111.73697662353516 130.18357849121094, 111.77368927001953 129.8677520751953, 111.83554077148438 129.5684356689453, 111.91317749023438 129.40817260742188, 111.99071502685547 129.24813842773438, 112.26138305664062 129.5465087890625, 112.43004608154297 130.36314392089844, 112.65846252441406 131.46908569335938, 112.70336151123047 133.34298706054688, 112.81769561767578 135.46446228027344, 112.93302917480469 137.6046905517578, 113.06140899658203 140.04306030273438, 113.25232696533203 142.21453857421875, 113.34996032714844 143.32493591308594, 113.45391082763672 144.35623168945312, 113.5929946899414 145.20187377929688, 113.76422882080078 146.24302673339844, 114.00332641601562 146.95663452148438, 114.33305358886719 147.32403564453125, 114.79421997070312 147.837890625, 115.67210388183594 147.38604736328125, 116.44750213623047 146.80165100097656, 117.05474853515625 146.343994140625, 117.68221282958984 145.78271484375, 118.2212905883789 145.24269104003906, 119.67523193359375 143.78619384765625, 120.47921752929688 142.9093475341797, 119.70140838623047 141.08816528320312"  fill="none" stroke="#000000" stroke-width="1" stroke-linecap="round" stroke-linejoin="round"/>
<path d="M112.07763671875 138.53343200683594C 111.23775482177734 140.13357543945312, 116.39747619628906 137.42857360839844, 118.05683135986328 136.85203552246094"  fill="none" stroke="#000000" stroke-width="1" stroke-linecap="round" stroke-linejoin="round"/>
<path d="M122.94356536865234 130.3141632080078C 122.8000717163086 130.3191375732422, 122.74117279052734 130.37327575683594, 122.72037506103516 130.8365478515625, 122.70719909667969 131.13009643554688, 122.70965576171875 131.56341552734375, 122.72037506103516 132.1751251220703, 122.74622344970703 133.6497039794922, 122.7840805053711 135.8671112060547, 122.94356536865234 137.75802612304688, 123.04553985595703 138.96707153320312, 123.21684265136719 140.01797485351562, 123.41344451904297 140.745361328125, 123.62063598632812 141.5119171142578, 123.78572082519531 141.99693298339844, 124.07127380371094 141.95335388183594, 124.28264617919922 141.9210968017578, 124.47187805175781 141.49908447265625, 124.67037200927734 141.13714599609375, 125.00393676757812 140.5288848876953, 125.55121612548828 139.69004821777344, 126.009521484375 138.92520141601562, 126.50667572021484 138.0955352783203, 127.10488891601562 137.50030517578125, 127.61885070800781 137.19483947753906, 127.98479461669922 136.9773406982422, 128.33596801757812 136.87771606445312, 128.652587890625 137.0234375, 130.36984252929688 137.81373596191406, 130.50430297851562 144.78553771972656, 131.11944580078125 143.34091186523438"  fill="none" stroke="#000000" stroke-width="1" stroke-linecap="round" stroke-linejoin="round"/>
<path d="M138.86068725585938 138.3212127685547C 138.92616271972656 137.4586639404297, 138.50636291503906 140.56167602539062, 138.68447875976562 143.07972717285156, 138.76087951660156 144.15972900390625, 138.99681091308594 145.06776428222656, 139.42454528808594 145.46307373046875, 139.65065002441406 145.6720428466797, 139.93789672851562 145.73944091796875, 140.246826171875 145.6344757080078, 141.16964721679688 145.3209228515625, 142.1042022705078 143.08168029785156, 142.84291076660156 141.13714599609375, 144.27099609375 137.3778533935547, 144.5039825439453 134.48248291015625, 142.71368408203125 137.11322021484375"  fill="none" stroke="#000000" stroke-width="1" stroke-linecap="round" stroke-linejoin="round"/>
<path d="M148.9395751953125 129.84075927734375C 148.0846710205078 129.4876251220703, 147.8435516357422 130.32774353027344, 148.03506469726562 132.4363250732422, 148.20550537109375 134.31298828125, 148.60302734375 137.22398376464844, 148.8573455810547 139.7495880126953, 148.97421264648438 140.91009521484375, 149.01478576660156 141.97842407226562, 149.06878662109375 142.77772521972656, 149.1074981689453 143.35055541992188, 149.14013671875 143.76707458496094, 149.1627655029297 143.9857177734375, 149.23138427734375 144.64878845214844, 148.82569885253906 142.05409240722656, 149.37420654296875 139.5781707763672, 149.7775115966797 137.7576904296875, 150.88287353515625 136.05079650878906, 152.09950256347656 135.50527954101562, 152.52464294433594 135.3146514892578, 152.9659423828125 135.22674560546875, 153.3916778564453 135.33387756347656, 154.91168212890625 135.7163543701172, 155.81520080566406 139.2296142578125, 155.85853576660156 141.9125518798828, 155.8739776611328 142.8685760498047, 155.79061889648438 143.7624053955078, 155.5648651123047 144.46728515625, 155.29563903808594 145.307861328125, 154.6877899169922 145.79945373535156, 154.04949951171875 145.9364776611328, 152.55001831054688 146.25836181640625, 150.39137268066406 144.0201416015625, 149.80885314941406 142.00233459472656"  fill="none" stroke="#000000" stroke-width="1" stroke-linecap="round" stroke-linejoin="round"/>
<path d="M173.43197631835938 125.42505645751953C 173.71493530273438 124.88176727294922, 173.9690399169922 124.55467224121094, 173.7726287841797 125.25365447998047, 173.67257690429688 125.60974884033203, 173.40296936035156 126.2032699584961, 173.03257751464844 127.15542602539062, 172.3523712158203 128.9040069580078, 171.40135192871094 131.6934356689453, 170.01361083984375 135.25225830078125, 169.04159545898438 137.74497985839844, 167.92884826660156 140.53277587890625, 166.8536834716797 143.12054443359375, 165.16287231445312 147.19003295898438, 163.6610565185547 150.60400390625, 163.38833618164062 151.42958068847656, 162.696044921875 153.52513122558594, 164.1389617919922 151.17478942871094, 165.77296447753906 149.48699951171875"  fill="none" stroke="#000000" stroke-width="1" stroke-linecap="round" stroke-linejoin="round"/>
<path d="M180.7855682373047 131.66091918945312C 180.6564483642578 131.10702514648438, 180.54856872558594 130.97853088378906, 180.4801483154297 131.5303192138672, 180.41629028320312 132.04527282714844, 180.48382568359375 133.0196990966797, 180.4331512451172 134.3380889892578, 180.3640899658203 136.13514709472656, 180.05332946777344 138.5025634765625, 179.74008178710938 140.745361328125, 179.54981994628906 142.10763549804688, 179.26219177246094 143.407470703125, 179.04701232910156 144.5081024169922, 178.830810546875 145.61402893066406, 178.6790771484375 146.52120971679688, 178.57713317871094 147.10365295410156, 178.3375244140625 148.47280883789062, 178.7047576904297 146.9571990966797, 179.74008178710938 144.165283203125"  fill="none" stroke="#000000" stroke-width="1" stroke-linecap="round" stroke-linejoin="round"/>
<path d="M181.07923889160156 131.0977325439453C 180.9812469482422 131.04051208496094, 180.6266326904297 130.89939880371094, 180.4801483154297 130.74676513671875, 180.41009521484375 130.67376708984375, 180.6849822998047 130.51353454589844, 181.2084503173828 130.36314392089844, 182.3289794921875 130.04119873046875, 184.3983917236328 129.54754638671875, 186.31838989257812 129.27757263183594, 187.39710998535156 129.1259002685547, 188.41445922851562 129.09913635253906, 189.21987915039062 129.10617065429688, 190.16513061523438 129.11444091796875, 190.76792907714844 129.122314453125, 190.99366760253906 129.44898986816406, 191.4798583984375 130.1525421142578, 189.59803771972656 132.1370391845703, 187.62229919433594 134.20750427246094, 186.69403076171875 135.18026733398438, 185.73931884765625 136.19845581054688, 185.06146240234375 137.06423950195312, 184.6967315673828 137.53009033203125, 184.42457580566406 137.92625427246094, 184.28616333007812 138.2803955078125, 184.13336181640625 138.67132568359375, 183.98231506347656 138.96910095214844, 184.07470703125 139.22720336914062, 184.2213134765625 139.63673400878906, 185.266845703125 139.7396697998047, 186.2361602783203 140.01077270507812, 187.1587677001953 140.26881408691406, 188.1979217529297 140.7466278076172, 189.1728973388672 141.349365234375, 189.98468017578125 141.85121154785156, 190.68569946289062 142.56475830078125, 191.25210571289062 143.2103271484375, 192.77928161621094 144.95091247558594, 192.3995361328125 146.7566375732422, 193.4957733154297 146.10787963867188"  fill="none" stroke="#000000" stroke-width="1" stroke-linecap="round" stroke-linejoin="round"/>
<path d="M200.29725646972656 137.75802612304688C 199.35357666015625 137.61785888671875, 198.63348388671875 138.54989624023438, 198.34725952148438 140.22299194335938, 198.2100067138672 141.02532958984375, 198.10302734375 141.9979705810547, 198.21804809570312 142.9083251953125, 198.37258911132812 144.1315460205078, 199.21054077148438 145.13671875, 200.1680450439453 145.59365844726562, 200.8772735595703 145.93212890625, 201.70654296875 145.9552459716797, 202.41171264648438 145.67527770996094, 205.0087127685547 144.64419555664062, 205.5299072265625 138.0180206298828, 201.8478546142578 136.6806182861328"  fill="none" stroke="#000000" stroke-width="1" stroke-linecap="round" stroke-linejoin="round"/>
<path d="M213.52432250976562 128.4532012939453C 213.60845947265625 128.96661376953125, 213.2709197998047 129.6939697265625, 213.00746154785156 130.87734985351562, 212.62103271484375 132.613037109375, 212.7000274658203 135.35208129882812, 212.7490234375 137.75802612304688, 212.7738037109375 138.97467041015625, 212.8932647705078 140.08627319335938, 212.92523193359375 140.91676330566406, 212.96224975585938 141.87847900390625, 213.09942626953125 142.5822296142578, 212.92523193359375 142.6063232421875, 212.84695434570312 142.61715698242188, 212.6983642578125 142.39434814453125, 212.4906005859375 142.13291931152344"  fill="none" stroke="#000000" stroke-width="1" stroke-linecap="round" stroke-linejoin="round"/>
<path d="M212.53758239746094 127.71861267089844C 212.7342071533203 127.32552337646484, 212.99160766601562 126.74785614013672, 213.70053100585938 126.3800277709961, 214.2143096923828 126.11344146728516, 214.9762420654297 126.04126739501953, 215.86196899414062 126.0780258178711, 216.80625915527344 126.11721801757812, 217.88937377929688 126.37068176269531, 218.89268493652344 126.72283172607422, 220.1116943359375 127.15069580078125, 221.15921020507812 127.87133026123047, 221.84117126464844 128.50218200683594, 222.32289123535156 128.94778442382812, 222.56130981445312 129.37860107421875, 222.56948852539062 129.79995727539062, 222.59059143066406 130.8877716064453, 220.45616149902344 131.91184997558594, 218.58726501464844 132.4771270751953, 217.6751251220703 132.75302124023438, 216.84375 132.87603759765625, 216.21438598632812 132.99951171875, 215.8067169189453 133.07948303222656, 215.4802703857422 133.18576049804688, 215.29811096191406 133.2606964111328, 215.11058044433594 133.3378448486328, 215.20101928710938 133.43321228027344, 215.56829833984375 133.47291564941406, 216.24099731445312 133.54563903808594, 217.55162048339844 133.35206604003906, 218.81045532226562 133.47291564941406, 219.6026153564453 133.54896545410156, 220.379638671875 133.74807739257812, 221.0541229248047 134.12588500976562, 222.24391174316406 134.79232788085938, 222.92111206054688 136.31488037109375, 223.13333129882812 137.7172088623047, 223.25511169433594 138.5218505859375, 223.2583465576172 139.3134765625, 223.00411987304688 140.01077270507812, 221.85182189941406 143.1712646484375, 215.28018188476562 144.10243225097656, 215.1336669921875 139.52920532226562"  fill="none" stroke="#000000" stroke-width="1" stroke-linecap="round" stroke-linejoin="round"/>
<path d="M228.7601318359375 128.50218200683594C 228.6683807373047 128.90846252441406, 228.17483520507812 129.27293395996094, 227.89085388183594 130.5345458984375, 227.76258850097656 131.1043701171875, 227.77743530273438 131.86447143554688, 227.7616424560547 132.7791290283203, 227.6706085205078 138.04664611816406, 228.1836395263672 147.51828002929688, 229.7586212158203 143.4715118408203"  fill="none" stroke="#000000" stroke-width="1" stroke-linecap="round" stroke-linejoin="round"/>
<path d="M237.14744567871094 138.0192108154297C 236.3181915283203 138.52088928222656, 235.36883544921875 138.71034240722656, 234.7275848388672 139.31698608398438, 234.27456665039062 139.74554443359375, 234.02490234375 140.482421875, 233.98751831054688 141.3085479736328, 233.9638671875 141.8314666748047, 233.96897888183594 142.39259338378906, 234.16372680664062 142.8675079345703, 234.4882049560547 143.65884399414062, 235.61087036132812 144.02699279785156, 236.54835510253906 144.11631774902344, 237.92967224121094 144.2479248046875, 239.16778564453125 143.0671844482422, 239.3558807373047 141.65135192871094, 239.60948181152344 139.74240112304688, 237.02786254882812 137.88259887695312, 235.24444580078125 138.23143005371094"  fill="none" stroke="#000000" stroke-width="1" stroke-linecap="round" stroke-linejoin="round"/>
<path d="M246.75645446777344 135.89706420898438C 245.78533935546875 135.9138641357422, 244.07122802734375 136.4344940185547, 243.12664794921875 137.7172088623047, 242.65121459960938 138.36285400390625, 242.45510864257812 139.25384521484375, 242.4688262939453 140.22299194335938, 242.48350524902344 141.26077270507812, 242.8213653564453 142.3981170654297, 243.3380889892578 143.30010986328125, 244.78970336914062 145.83399963378906, 248.27572631835938 145.81959533691406, 250.82090759277344 143.30010986328125"  fill="none" stroke="#000000" stroke-width="1" stroke-linecap="round" stroke-linejoin="round"/>
<path d="M254.11004638671875 128.4532012939453C 253.5115966796875 128.85931396484375, 253.1356201171875 129.9425048828125, 252.9470977783203 131.74253845214844, 252.70504760742188 134.05392456054688, 252.70343017578125 137.4306640625, 252.80613708496094 139.70877075195312, 252.85186767578125 140.7228546142578, 252.88534545898438 141.5133514404297, 253.02932739257812 141.95335388183594, 253.2815399169922 142.72406005859375, 254.04879760742188 141.47000122070312, 254.62692260742188 140.27195739746094, 255.20054626464844 139.08323669433594, 256.00421142578125 138.11920166015625, 256.8353576660156 137.41522216796875, 257.27764892578125 137.0405731201172, 257.736083984375 136.71051025390625, 258.09228515625 136.41943359375, 258.2701416015625 136.27407836914062, 258.4178771972656 136.1547393798828, 258.52691650390625 136.06846618652344, 258.7193603515625 135.9162139892578, 258.8271179199219 135.81686401367188, 258.78533935546875 135.89706420898438, 258.64996337890625 136.15699768066406, 258.1313781738281 136.73345947265625, 257.6576232910156 137.32542419433594, 256.9565734863281 138.2014617919922, 256.263671875 139.23757934570312, 255.966064453125 140.1821746826172, 255.8167266845703 140.65623474121094, 255.7111358642578 141.0802459716797, 255.83685302734375 141.47994995117188, 256.2252197265625 142.71473693847656, 259.0080871582031 143.3134307861328, 261.2052001953125 142.94912719726562"  fill="none" stroke="#000000" stroke-width="1" stroke-linecap="round" stroke-linejoin="round"/>
<path d="M269.0286865234375 126.5106201171875C 268.7634582519531 125.85285186767578, 268.5330810546875 126.8416519165039, 268.3003845214844 128.9347686767578, 268.1353759765625 130.4187774658203, 267.98126220703125 132.39529418945312, 267.8187561035156 134.46868896484375, 267.6131591796875 137.09153747558594, 267.36328125 139.83250427246094, 267.21966552734375 141.7411346435547, 267.1144714355469 143.13882446289062, 267.0235290527344 144.03182983398438, 267.04345703125 144.29588317871094, 267.0460510253906 144.33030700683594, 267.3716735839844 143.388916015625, 267.52508544921875 142.47572326660156, 267.7120056152344 141.36289978027344, 267.602294921875 140.36074829101562, 267.47808837890625 139.4475860595703, 267.4100646972656 138.94757080078125, 267.2821350097656 138.46156311035156, 267.3018798828125 138.0192108154297, 267.32073974609375 137.5971221923828, 267.5379638671875 137.22059631347656, 267.9127197265625 136.93365478515625, 268.7869873046875 136.26425170898438, 270.6390075683594 135.91256713867188, 272.024169921875 134.9420928955078, 274.1345520019531 133.46348571777344, 274.71490478515625 131.39910888671875, 273.0578918457031 129.2367706298828"  fill="none" stroke="#000000" stroke-width="1" stroke-linecap="round" stroke-linejoin="round"/>
<path d="M272.97564697265625 123.95587158203125C 272.9950866699219 123.73979949951172, 272.9901123046875 123.07331848144531, 272.97564697265625 122.6172866821289, 272.9653625488281 122.29180145263672, 272.94488525390625 122.03375244140625, 272.9286804199219 122.0541000366211, 272.86370849609375 122.13566589355469, 272.9299011230469 122.58302307128906, 272.9286804199219 123.30290222167969, 272.9256591796875 125.04886627197266, 272.8913879394531 128.18081665039062, 272.8816833496094 131.48135375976562, 272.8768615722656 133.12847900390625, 272.8659973144531 134.80459594726562, 272.8816833496094 136.37046813964844, 272.903076171875 138.50650024414062, 272.9522705078125 140.43426513671875, 273.1048889160156 141.78195190429688, 273.5608215332031 145.80868530273438, 275.8045959472656 142.82984924316406, 276.73468017578125 140.31277465820312"  fill="none" stroke="#000000" stroke-width="1" stroke-linecap="round" stroke-linejoin="round"/>
<path d="M278.71990966796875 139.1455841064453C 278.3992919921875 139.73341369628906, 278.6546325683594 140.30374145507812, 279.2015380859375 140.31277465820312, 280.1678161621094 140.32870483398438, 282.00885009765625 137.8926239013672, 282.7021484375 136.117431640625, 283.00579833984375 135.3398895263672, 283.0666198730469 134.61204528808594, 282.9253234863281 134.12588500976562, 282.8167419433594 133.752197265625, 282.51812744140625 133.54281616210938, 282.1030578613281 133.52188110351562, 281.53753662109375 133.4933624267578, 280.7666931152344 133.79812622070312, 280.0238342285156 134.5584716796875, 278.9123229980469 135.69613647460938, 278.09149169921875 137.89173889160156, 277.6861877441406 139.92098999023438, 277.45361328125 141.08543395996094, 277.38543701171875 142.2354278564453, 277.5569763183594 143.1695098876953, 278.074951171875 145.99014282226562, 281.8838806152344 146.36251831054688, 284.2644958496094 143.81431579589844"  fill="none" stroke="#000000" stroke-width="1" stroke-linecap="round" stroke-linejoin="round"/>
<path d="M290.8427734375 137.2356414794922C 289.871826171875 137.33544921875, 288.86981201171875 137.2060089111328, 287.98828125 137.2356414794922, 287.5873107910156 137.24913024902344, 287.2321472167969 137.14376831054688, 286.89581298828125 137.32542419433594, 286.5653076171875 137.50393676757812, 286.28564453125 137.88470458984375, 286.03826904296875 138.3212127685547, 285.6482238769531 139.0094757080078, 285.51446533203125 140.06422424316406, 285.3921813964844 141.17794799804688, 285.29083251953125 142.10101318359375, 285.20562744140625 143.07064819335938, 285.2159729003906 143.9040985107422, 285.22381591796875 144.5340576171875, 285.15289306640625 145.09326171875, 285.2629699707031 145.50387573242188, 285.4001159667969 146.015380859375, 286.02471923828125 146.18629455566406, 286.6373596191406 146.10787963867188, 287.4307556152344 146.00631713867188, 288.4120788574219 145.30747985839844, 289.3274230957031 144.37750244140625, 290.4271545410156 143.26019287109375, 291.2633361816406 141.6735076904297, 291.82952880859375 140.443359375, 292.09814453125 139.85972595214844, 292.2965087890625 139.33984375, 292.39337158203125 138.92520141601562, 292.53277587890625 138.32839965820312, 292.341064453125 137.87429809570312, 292.13494873046875 137.84780883789062, 291.9259033203125 137.82093811035156, 291.5723876953125 138.62960815429688, 291.3126525878906 139.35780334472656, 290.6362609863281 141.25421142578125, 290.4190673828125 144.10879516601562, 291.0542297363281 145.3324737548828, 291.8564147949219 146.87794494628906, 295.02392578125 145.3983917236328, 298.0201721191406 141.17794799804688"  fill="none" stroke="#000000" stroke-width="1" stroke-linecap="round" stroke-linejoin="round"/>
<path d="M301.9084167480469 137.75802612304688C 301.988525390625 137.2500762939453, 301.6527099609375 136.8992462158203, 301.0508728027344 136.89283752441406, 300.7603454589844 136.88975524902344, 300.41046142578125 136.8460693359375, 300.0054016113281 137.0234375, 298.595947265625 137.64060974121094, 297.015625 140.3721923828125, 296.2933654785156 142.6063232421875, 296.0567626953125 143.33815002441406, 296.04461669921875 144.0714874267578, 296.0701599121094 144.67950439453125, 296.0958251953125 145.2897491455078, 296.0927734375 145.8022003173828, 296.2933654785156 146.15684509277344, 296.6463317871094 146.78091430664062, 297.6744079589844 146.83251953125, 298.6310119628906 146.54046630859375, 299.393798828125 146.30758666992188, 300.1689453125 145.6935577392578, 300.8746643066406 144.98150634765625, 303.0048828125 142.8322296142578, 304.155517578125 139.33998107910156, 303.77618408203125 135.8562469482422"  fill="none" stroke="#000000" stroke-width="1" stroke-linecap="round" stroke-linejoin="round"/>
<path d="M302.85992431640625 125.03327178955078C 302.4858093261719 124.91670989990234, 301.9403381347656 124.53549194335938, 301.43853759765625 124.34765625, 301.0950012207031 124.21906280517578, 300.77685546875 124.11231994628906, 300.5340270996094 124.25787353515625, 300.32391357421875 124.3838119506836, 300.290283203125 124.88540649414062, 300.2638244628906 125.5964584350586, 300.2142333984375 126.93045806884766, 300.23028564453125 129.0807342529297, 300.4870300292969 131.7017364501953, 300.6492004394531 133.35714721679688, 300.9064636230469 135.17050170898438, 301.1800842285156 136.93365478515625, 301.6210021972656 139.7748260498047, 302.0716552734375 142.4716796875, 302.6484680175781 144.24691772460938, 303.6561279296875 147.34814453125, 305.33209228515625 146.92518615722656, 307.9698486328125 144.29588317871094"  fill="none" stroke="#000000" stroke-width="1" stroke-linecap="round" stroke-linejoin="round"/>
</svg>